<mxfile host="Electron" modified="2024-09-25T16:05:03.540Z" agent="Mozilla/5.0 (Macintosh; Intel Mac OS X 10_15_7) AppleWebKit/537.36 (KHTML, like Gecko) draw.io/24.4.0 Chrome/120.0.6099.109 Electron/28.1.0 Safari/537.36" etag="2su2mh3lW0S_I9clac3X" version="24.4.0" type="device" pages="3">
  <diagram name="SD User Habit Checkin" id="z7g9NlXOLI8oSROJPKoz">
    <mxGraphModel dx="1121" dy="837" grid="0" gridSize="10" guides="1" tooltips="1" connect="1" arrows="1" fold="1" page="0" pageScale="1" pageWidth="1169" pageHeight="827" math="0" shadow="0">
      <root>
        <mxCell id="0" />
        <mxCell id="1" parent="0" />
        <mxCell id="NvRhOsfGJSv9MPCDauGX-1" value="" style="shape=umlLifeline;participant=umlActor;perimeter=lifelinePerimeter;whiteSpace=wrap;html=1;container=1;collapsible=0;recursiveResize=0;verticalAlign=top;spacingTop=36;labelBackgroundColor=#ffffff;outlineConnect=0;strokeColor=#000066;fillColor=#FF8000;fontFamily=Tahoma;fontSize=14;fontColor=#000066;" vertex="1" parent="1">
          <mxGeometry x="70" y="51" width="20" height="829" as="geometry" />
        </mxCell>
        <mxCell id="NvRhOsfGJSv9MPCDauGX-2" value="" style="html=1;points=[];perimeter=orthogonalPerimeter;strokeColor=#000066;fillColor=#FF8000;fontFamily=Tahoma;fontSize=10;fontColor=#000066;align=center;" vertex="1" parent="NvRhOsfGJSv9MPCDauGX-1">
          <mxGeometry x="6" y="331" width="10" height="19" as="geometry" />
        </mxCell>
        <mxCell id="NvRhOsfGJSv9MPCDauGX-3" value="" style="html=1;points=[];perimeter=orthogonalPerimeter;strokeColor=#000066;fillColor=#FF8000;fontFamily=Tahoma;fontSize=10;fontColor=#000066;align=center;" vertex="1" parent="NvRhOsfGJSv9MPCDauGX-1">
          <mxGeometry x="6" y="529" width="10" height="21" as="geometry" />
        </mxCell>
        <mxCell id="NvRhOsfGJSv9MPCDauGX-4" value="User: Person" style="text;html=1;resizable=0;points=[];autosize=1;align=center;verticalAlign=top;spacingTop=-4;fontSize=14;fontFamily=Tahoma;fontColor=#000066;" vertex="1" parent="1">
          <mxGeometry x="61" y="10" width="90" height="20" as="geometry" />
        </mxCell>
        <mxCell id="NvRhOsfGJSv9MPCDauGX-5" value="" style="shape=umlLifeline;participant=umlControl;perimeter=lifelinePerimeter;whiteSpace=wrap;html=1;container=1;collapsible=0;recursiveResize=0;verticalAlign=top;spacingTop=36;labelBackgroundColor=#ffffff;outlineConnect=0;strokeColor=#000066;fillColor=#FF8000;fontFamily=Tahoma;fontSize=14;fontColor=#000066;" vertex="1" parent="1">
          <mxGeometry x="180" y="47" width="40" height="833" as="geometry" />
        </mxCell>
        <mxCell id="NvRhOsfGJSv9MPCDauGX-6" value="" style="html=1;points=[];perimeter=orthogonalPerimeter;strokeColor=#000066;fillColor=#FF8000;fontFamily=Tahoma;fontSize=14;fontColor=#000066;align=center;" vertex="1" parent="NvRhOsfGJSv9MPCDauGX-5">
          <mxGeometry x="15" y="73" width="10" height="717" as="geometry" />
        </mxCell>
        <mxCell id="NvRhOsfGJSv9MPCDauGX-7" value="" style="html=1;points=[];perimeter=orthogonalPerimeter;strokeColor=#000066;fillColor=#FF8000;fontFamily=Tahoma;fontSize=10;fontColor=#000066;align=center;" vertex="1" parent="NvRhOsfGJSv9MPCDauGX-5">
          <mxGeometry x="21" y="78" width="10" height="17" as="geometry" />
        </mxCell>
        <mxCell id="NvRhOsfGJSv9MPCDauGX-8" value="displayLogin()" style="edgeStyle=orthogonalEdgeStyle;html=1;align=left;spacingLeft=2;endArrow=block;rounded=0;entryX=1.3;entryY=0.882;strokeColor=#FF8000;fontFamily=Tahoma;fontSize=10;fontColor=#000066;exitX=0.7;exitY=0;exitPerimeter=0;entryPerimeter=0;" edge="1" parent="NvRhOsfGJSv9MPCDauGX-5" source="NvRhOsfGJSv9MPCDauGX-7" target="NvRhOsfGJSv9MPCDauGX-7">
          <mxGeometry relative="1" as="geometry">
            <mxPoint x="36" y="78" as="sourcePoint" />
            <Array as="points">
              <mxPoint x="61" y="78" />
              <mxPoint x="61" y="93" />
            </Array>
            <mxPoint x="41" y="98" as="targetPoint" />
          </mxGeometry>
        </mxCell>
        <mxCell id="NvRhOsfGJSv9MPCDauGX-9" value="" style="html=1;points=[];perimeter=orthogonalPerimeter;strokeColor=#000066;fillColor=#FF8000;fontFamily=Tahoma;fontSize=10;fontColor=#000066;align=center;" vertex="1" parent="NvRhOsfGJSv9MPCDauGX-5">
          <mxGeometry x="21" y="244" width="10" height="17" as="geometry" />
        </mxCell>
        <mxCell id="NvRhOsfGJSv9MPCDauGX-10" value="displayError()" style="edgeStyle=orthogonalEdgeStyle;html=1;align=left;spacingLeft=2;endArrow=block;rounded=0;entryX=1.3;entryY=0.882;strokeColor=#FF8000;fontFamily=Tahoma;fontSize=10;fontColor=#000066;exitX=0.7;exitY=0;exitPerimeter=0;entryPerimeter=0;" edge="1" parent="NvRhOsfGJSv9MPCDauGX-5" source="NvRhOsfGJSv9MPCDauGX-9" target="NvRhOsfGJSv9MPCDauGX-9">
          <mxGeometry relative="1" as="geometry">
            <mxPoint x="-134" y="41" as="sourcePoint" />
            <Array as="points">
              <mxPoint x="60" y="244" />
              <mxPoint x="60" y="259" />
            </Array>
            <mxPoint x="-129" y="61" as="targetPoint" />
          </mxGeometry>
        </mxCell>
        <mxCell id="NvRhOsfGJSv9MPCDauGX-11" value="" style="html=1;points=[];perimeter=orthogonalPerimeter;strokeColor=#000066;fillColor=#FF8000;fontFamily=Tahoma;fontSize=10;fontColor=#000066;align=center;" vertex="1" parent="NvRhOsfGJSv9MPCDauGX-5">
          <mxGeometry x="21" y="272" width="10" height="17" as="geometry" />
        </mxCell>
        <mxCell id="NvRhOsfGJSv9MPCDauGX-12" value="displayLogin()" style="edgeStyle=orthogonalEdgeStyle;html=1;align=left;spacingLeft=2;endArrow=block;rounded=0;entryX=1.3;entryY=0.882;strokeColor=#FF8000;fontFamily=Tahoma;fontSize=10;fontColor=#000066;exitX=0.7;exitY=0;exitPerimeter=0;entryPerimeter=0;" edge="1" parent="NvRhOsfGJSv9MPCDauGX-5" source="NvRhOsfGJSv9MPCDauGX-11" target="NvRhOsfGJSv9MPCDauGX-11">
          <mxGeometry relative="1" as="geometry">
            <mxPoint x="-121" y="225" as="sourcePoint" />
            <Array as="points">
              <mxPoint x="60" y="272" />
              <mxPoint x="60" y="287" />
            </Array>
            <mxPoint x="-116" y="245" as="targetPoint" />
          </mxGeometry>
        </mxCell>
        <mxCell id="NvRhOsfGJSv9MPCDauGX-13" value="" style="html=1;points=[];perimeter=orthogonalPerimeter;strokeColor=#000066;fillColor=#FF8000;fontFamily=Tahoma;fontSize=10;fontColor=#000066;align=center;" vertex="1" parent="NvRhOsfGJSv9MPCDauGX-5">
          <mxGeometry x="21" y="503" width="10" height="20" as="geometry" />
        </mxCell>
        <mxCell id="NvRhOsfGJSv9MPCDauGX-14" value="displayEnterNewHabit()" style="edgeStyle=orthogonalEdgeStyle;html=1;align=left;spacingLeft=2;endArrow=block;rounded=0;strokeColor=#FF8000;fontFamily=Tahoma;fontSize=10;fontColor=#000066;" edge="1" parent="NvRhOsfGJSv9MPCDauGX-5" source="NvRhOsfGJSv9MPCDauGX-13" target="NvRhOsfGJSv9MPCDauGX-13">
          <mxGeometry relative="1" as="geometry">
            <mxPoint x="-115" y="713" as="sourcePoint" />
            <Array as="points">
              <mxPoint x="60" y="503" />
              <mxPoint x="60" y="523" />
            </Array>
          </mxGeometry>
        </mxCell>
        <mxCell id="NvRhOsfGJSv9MPCDauGX-15" value="&lt;div style=&quot;text-align: center&quot;&gt;&lt;span&gt;Habit Tracker&amp;nbsp;&lt;/span&gt;&lt;/div&gt;&lt;div style=&quot;text-align: center&quot;&gt;app UI&lt;/div&gt;" style="text;html=1;resizable=0;points=[];autosize=1;align=left;verticalAlign=top;spacingTop=-4;fontSize=14;fontFamily=Tahoma;fontColor=#000066;" vertex="1" parent="1">
          <mxGeometry x="156" y="10" width="100" height="40" as="geometry" />
        </mxCell>
        <mxCell id="NvRhOsfGJSv9MPCDauGX-16" value="" style="shape=umlLifeline;participant=umlEntity;perimeter=lifelinePerimeter;whiteSpace=wrap;html=1;container=1;collapsible=0;recursiveResize=0;verticalAlign=top;spacingTop=36;labelBackgroundColor=#ffffff;outlineConnect=0;fontFamily=Tahoma;fontSize=14;fontColor=#000066;align=center;strokeColor=#000066;fillColor=#FF8000;" vertex="1" parent="1">
          <mxGeometry x="455" y="50" width="45" height="830" as="geometry" />
        </mxCell>
        <mxCell id="NvRhOsfGJSv9MPCDauGX-17" value="" style="html=1;points=[];perimeter=orthogonalPerimeter;strokeColor=#000066;fillColor=#FF8000;fontFamily=Tahoma;fontSize=10;fontColor=#000066;align=center;" vertex="1" parent="NvRhOsfGJSv9MPCDauGX-16">
          <mxGeometry x="20" y="213" width="10" height="21" as="geometry" />
        </mxCell>
        <mxCell id="NvRhOsfGJSv9MPCDauGX-18" value="" style="html=1;points=[];perimeter=orthogonalPerimeter;strokeColor=#000066;fillColor=#FF8000;fontFamily=Tahoma;fontSize=10;fontColor=#000066;align=center;" vertex="1" parent="NvRhOsfGJSv9MPCDauGX-16">
          <mxGeometry x="20" y="359" width="10" height="11" as="geometry" />
        </mxCell>
        <mxCell id="NvRhOsfGJSv9MPCDauGX-19" value="Authentication&amp;nbsp;&lt;div&gt;Service&lt;/div&gt;" style="text;html=1;resizable=0;points=[];autosize=1;align=center;verticalAlign=top;spacingTop=-4;fontSize=14;fontFamily=Tahoma;fontColor=#000066;" vertex="1" parent="1">
          <mxGeometry x="422" y="10" width="110" height="40" as="geometry" />
        </mxCell>
        <mxCell id="NvRhOsfGJSv9MPCDauGX-20" value="" style="shape=umlLifeline;participant=umlBoundary;perimeter=lifelinePerimeter;whiteSpace=wrap;html=1;container=1;collapsible=0;recursiveResize=0;verticalAlign=top;spacingTop=36;labelBackgroundColor=#ffffff;outlineConnect=0;fontFamily=Tahoma;fontSize=14;fontColor=#000066;align=center;strokeColor=#000066;fillColor=#FF8000;" vertex="1" parent="1">
          <mxGeometry x="330" y="49" width="50" height="830" as="geometry" />
        </mxCell>
        <mxCell id="NvRhOsfGJSv9MPCDauGX-21" value="" style="html=1;points=[];perimeter=orthogonalPerimeter;strokeColor=#000066;fillColor=#FF8000;fontFamily=Tahoma;fontSize=10;fontColor=#000066;align=center;" vertex="1" parent="NvRhOsfGJSv9MPCDauGX-20">
          <mxGeometry x="20" y="388" width="10" height="12" as="geometry" />
        </mxCell>
        <mxCell id="NvRhOsfGJSv9MPCDauGX-22" value="" style="group" vertex="1" connectable="0" parent="NvRhOsfGJSv9MPCDauGX-20">
          <mxGeometry x="-144" y="127" width="170" height="64" as="geometry" />
        </mxCell>
        <mxCell id="NvRhOsfGJSv9MPCDauGX-23" value="" style="group" vertex="1" connectable="0" parent="NvRhOsfGJSv9MPCDauGX-22">
          <mxGeometry width="170" height="64" as="geometry" />
        </mxCell>
        <mxCell id="NvRhOsfGJSv9MPCDauGX-24" value="" style="group" vertex="1" connectable="0" parent="NvRhOsfGJSv9MPCDauGX-23">
          <mxGeometry x="49.03333333333333" y="0.32" width="100" height="10" as="geometry" />
        </mxCell>
        <mxCell id="NvRhOsfGJSv9MPCDauGX-25" value="UserExists == false" style="text;html=1;resizable=0;points=[];autosize=1;align=left;verticalAlign=top;spacingTop=-4;fontSize=10;fontFamily=Tahoma;fontColor=#000066;" vertex="1" parent="NvRhOsfGJSv9MPCDauGX-24">
          <mxGeometry width="100" height="10" as="geometry" />
        </mxCell>
        <mxCell id="NvRhOsfGJSv9MPCDauGX-26" value="" style="html=1;points=[];perimeter=orthogonalPerimeter;strokeColor=#000066;fillColor=#FF8000;fontFamily=Tahoma;fontSize=10;fontColor=#000066;align=center;" vertex="1" parent="NvRhOsfGJSv9MPCDauGX-20">
          <mxGeometry x="20" y="561" width="10" height="10" as="geometry" />
        </mxCell>
        <mxCell id="NvRhOsfGJSv9MPCDauGX-27" value="" style="group" vertex="1" connectable="0" parent="NvRhOsfGJSv9MPCDauGX-20">
          <mxGeometry x="20" y="443" width="10" height="18" as="geometry" />
        </mxCell>
        <mxCell id="NvRhOsfGJSv9MPCDauGX-28" value="" style="group" vertex="1" connectable="0" parent="NvRhOsfGJSv9MPCDauGX-27">
          <mxGeometry width="10" height="18" as="geometry" />
        </mxCell>
        <mxCell id="NvRhOsfGJSv9MPCDauGX-29" value="" style="group" vertex="1" connectable="0" parent="NvRhOsfGJSv9MPCDauGX-28">
          <mxGeometry width="10" height="18" as="geometry" />
        </mxCell>
        <mxCell id="NvRhOsfGJSv9MPCDauGX-30" value="" style="html=1;points=[];perimeter=orthogonalPerimeter;strokeColor=#000066;fillColor=#FF8000;fontFamily=Tahoma;fontSize=10;fontColor=#000066;align=center;" vertex="1" parent="NvRhOsfGJSv9MPCDauGX-29">
          <mxGeometry width="10" height="18" as="geometry" />
        </mxCell>
        <mxCell id="NvRhOsfGJSv9MPCDauGX-31" value="" style="group" vertex="1" connectable="0" parent="NvRhOsfGJSv9MPCDauGX-20">
          <mxGeometry x="20" y="612" width="10" height="18" as="geometry" />
        </mxCell>
        <mxCell id="NvRhOsfGJSv9MPCDauGX-32" value="" style="group" vertex="1" connectable="0" parent="NvRhOsfGJSv9MPCDauGX-31">
          <mxGeometry width="10" height="18" as="geometry" />
        </mxCell>
        <mxCell id="NvRhOsfGJSv9MPCDauGX-33" value="" style="group" vertex="1" connectable="0" parent="NvRhOsfGJSv9MPCDauGX-32">
          <mxGeometry width="10" height="18" as="geometry" />
        </mxCell>
        <mxCell id="NvRhOsfGJSv9MPCDauGX-34" value="" style="html=1;points=[];perimeter=orthogonalPerimeter;strokeColor=#000066;fillColor=#FF8000;fontFamily=Tahoma;fontSize=10;fontColor=#000066;align=center;" vertex="1" parent="NvRhOsfGJSv9MPCDauGX-33">
          <mxGeometry width="10" height="18" as="geometry" />
        </mxCell>
        <mxCell id="NvRhOsfGJSv9MPCDauGX-35" value="&lt;div style=&quot;text-align: center&quot;&gt;Data store&lt;/div&gt;" style="text;html=1;resizable=0;points=[];autosize=1;align=center;verticalAlign=top;spacingTop=-4;fontSize=14;fontFamily=Tahoma;fontColor=#000066;" vertex="1" parent="1">
          <mxGeometry x="313" y="10" width="80" height="20" as="geometry" />
        </mxCell>
        <mxCell id="NvRhOsfGJSv9MPCDauGX-36" value="" style="shape=umlLifeline;participant=umlActor;perimeter=lifelinePerimeter;whiteSpace=wrap;html=1;container=1;collapsible=0;recursiveResize=0;verticalAlign=top;spacingTop=36;labelBackgroundColor=#ffffff;outlineConnect=0;strokeColor=#000066;fillColor=#FF8000;fontFamily=Tahoma;fontSize=14;fontColor=#000066;align=center;" vertex="1" parent="1">
          <mxGeometry x="578" y="51" width="20" height="819" as="geometry" />
        </mxCell>
        <mxCell id="NvRhOsfGJSv9MPCDauGX-37" value="&lt;div style=&quot;text-align: center&quot;&gt;&lt;span&gt;Coach: Person&lt;/span&gt;&lt;/div&gt;" style="text;html=1;resizable=0;points=[];autosize=1;align=left;verticalAlign=top;spacingTop=-4;fontSize=14;fontFamily=Tahoma;fontColor=#000066;" vertex="1" parent="1">
          <mxGeometry x="538" y="10" width="100" height="20" as="geometry" />
        </mxCell>
        <mxCell id="NvRhOsfGJSv9MPCDauGX-38" value="&lt;font style=&quot;font-size: 10px&quot;&gt;login()&lt;/font&gt;" style="html=1;verticalAlign=bottom;endArrow=block;entryX=0;entryY=0;strokeColor=#FF8000;fontFamily=Tahoma;fontSize=14;fontColor=#000066;" edge="1" parent="1" source="NvRhOsfGJSv9MPCDauGX-1" target="NvRhOsfGJSv9MPCDauGX-6">
          <mxGeometry relative="1" as="geometry">
            <mxPoint x="125" y="120" as="sourcePoint" />
          </mxGeometry>
        </mxCell>
        <mxCell id="NvRhOsfGJSv9MPCDauGX-39" value="" style="html=1;verticalAlign=bottom;endArrow=open;dashed=1;endSize=8;exitX=0.333;exitY=0.996;strokeColor=#FF8000;fontFamily=Tahoma;fontSize=14;fontColor=#000066;exitPerimeter=0;" edge="1" parent="1" source="NvRhOsfGJSv9MPCDauGX-6" target="NvRhOsfGJSv9MPCDauGX-1">
          <mxGeometry relative="1" as="geometry">
            <mxPoint x="125" y="196" as="targetPoint" />
          </mxGeometry>
        </mxCell>
        <mxCell id="NvRhOsfGJSv9MPCDauGX-40" value="inDatabase(UserID)" style="edgeStyle=none;rounded=1;jumpStyle=arc;jumpSize=13;html=1;startArrow=none;startFill=0;endArrow=open;endFill=0;jettySize=auto;orthogonalLoop=1;strokeColor=#FF8000;fontFamily=Tahoma;fontSize=10;fontColor=#000066;entryX=0.2;entryY=0.067;entryPerimeter=0;" edge="1" parent="1" target="NvRhOsfGJSv9MPCDauGX-73">
          <mxGeometry x="0.0659" y="11" relative="1" as="geometry">
            <mxPoint x="206" y="211" as="sourcePoint" />
            <mxPoint x="344" y="215" as="targetPoint" />
            <mxPoint as="offset" />
          </mxGeometry>
        </mxCell>
        <mxCell id="NvRhOsfGJSv9MPCDauGX-41" value="UserExists" style="html=1;verticalAlign=bottom;endArrow=open;dashed=1;endSize=8;strokeColor=#FF8000;fontFamily=Tahoma;fontSize=10;fontColor=#000066;" edge="1" parent="1" source="NvRhOsfGJSv9MPCDauGX-73">
          <mxGeometry relative="1" as="geometry">
            <mxPoint x="345" y="228" as="sourcePoint" />
            <mxPoint x="205" y="228" as="targetPoint" />
          </mxGeometry>
        </mxCell>
        <mxCell id="NvRhOsfGJSv9MPCDauGX-42" value="validateCredentials(UserID, password)" style="html=1;verticalAlign=bottom;endArrow=block;entryX=0;entryY=0;strokeColor=#FF8000;fontFamily=Tahoma;fontSize=10;fontColor=#000066;" edge="1" parent="1" target="NvRhOsfGJSv9MPCDauGX-17">
          <mxGeometry relative="1" as="geometry">
            <mxPoint x="205" y="262" as="sourcePoint" />
          </mxGeometry>
        </mxCell>
        <mxCell id="NvRhOsfGJSv9MPCDauGX-43" value="" style="html=1;verticalAlign=bottom;endArrow=open;dashed=1;endSize=8;exitX=0;exitY=0.95;strokeColor=#FF8000;fontFamily=Tahoma;fontSize=10;fontColor=#000066;" edge="1" parent="1" source="NvRhOsfGJSv9MPCDauGX-17">
          <mxGeometry relative="1" as="geometry">
            <mxPoint x="205" y="282" as="targetPoint" />
          </mxGeometry>
        </mxCell>
        <mxCell id="NvRhOsfGJSv9MPCDauGX-44" value="Valid" style="text;html=1;resizable=0;points=[];autosize=1;align=left;verticalAlign=top;spacingTop=-4;fontSize=10;fontFamily=Tahoma;fontColor=#000066;" vertex="1" parent="1">
          <mxGeometry x="256" y="267" width="40" height="10" as="geometry" />
        </mxCell>
        <mxCell id="NvRhOsfGJSv9MPCDauGX-45" value="break" style="shape=umlFrame;whiteSpace=wrap;html=1;strokeColor=#000066;fillColor=#FF8000;fontFamily=Tahoma;fontSize=10;fontColor=#000066;align=center;width=50;height=15;" vertex="1" parent="1">
          <mxGeometry x="188" y="176" width="192" height="64" as="geometry" />
        </mxCell>
        <mxCell id="NvRhOsfGJSv9MPCDauGX-46" value="loop" style="shape=umlFrame;whiteSpace=wrap;html=1;strokeColor=#000066;fillColor=#FF8000;fontFamily=Tahoma;fontSize=10;fontColor=#000066;align=center;width=40;height=15;swimlaneFillColor=none;" vertex="1" parent="1">
          <mxGeometry x="182" y="157" width="308" height="183" as="geometry" />
        </mxCell>
        <mxCell id="NvRhOsfGJSv9MPCDauGX-47" value="Valid == false" style="text;html=1;resizable=0;points=[];autosize=1;align=left;verticalAlign=top;spacingTop=-4;fontSize=10;fontFamily=Tahoma;fontColor=#000066;" vertex="1" parent="1">
          <mxGeometry x="220" y="157" width="80" height="10" as="geometry" />
        </mxCell>
        <mxCell id="NvRhOsfGJSv9MPCDauGX-48" value="opt" style="shape=umlFrame;whiteSpace=wrap;html=1;strokeColor=#000066;fillColor=#FF8000;fontFamily=Tahoma;fontSize=10;fontColor=#000066;align=center;width=41;height=15;" vertex="1" parent="1">
          <mxGeometry x="69" y="350" width="421" height="110" as="geometry" />
        </mxCell>
        <mxCell id="NvRhOsfGJSv9MPCDauGX-49" value="NewUser == true" style="text;html=1;resizable=0;points=[];autosize=1;align=left;verticalAlign=top;spacingTop=-4;fontSize=10;fontFamily=Tahoma;fontColor=#000066;" vertex="1" parent="1">
          <mxGeometry x="110" y="350" width="90" height="10" as="geometry" />
        </mxCell>
        <mxCell id="NvRhOsfGJSv9MPCDauGX-50" value="registerUser()" style="html=1;verticalAlign=bottom;endArrow=block;entryX=1;entryY=0;strokeColor=#FF8000;fontFamily=Tahoma;fontSize=10;fontColor=#000066;" edge="1" parent="1" source="NvRhOsfGJSv9MPCDauGX-6" target="NvRhOsfGJSv9MPCDauGX-2">
          <mxGeometry relative="1" as="geometry">
            <mxPoint x="130" y="590" as="sourcePoint" />
          </mxGeometry>
        </mxCell>
        <mxCell id="NvRhOsfGJSv9MPCDauGX-51" value="UserID, password" style="html=1;verticalAlign=bottom;endArrow=open;dashed=1;endSize=8;exitX=1;exitY=0.95;strokeColor=#FF8000;fontFamily=Tahoma;fontSize=10;fontColor=#000066;" edge="1" parent="1" source="NvRhOsfGJSv9MPCDauGX-2" target="NvRhOsfGJSv9MPCDauGX-6">
          <mxGeometry relative="1" as="geometry">
            <mxPoint x="130" y="647" as="targetPoint" />
          </mxGeometry>
        </mxCell>
        <mxCell id="NvRhOsfGJSv9MPCDauGX-52" value="newUser(UserID, password)" style="html=1;verticalAlign=bottom;endArrow=block;entryX=0;entryY=0;strokeColor=#FF8000;fontFamily=Tahoma;fontSize=10;fontColor=#000066;" edge="1" parent="1" source="NvRhOsfGJSv9MPCDauGX-6" target="NvRhOsfGJSv9MPCDauGX-18">
          <mxGeometry relative="1" as="geometry">
            <mxPoint x="290" y="401" as="sourcePoint" />
          </mxGeometry>
        </mxCell>
        <mxCell id="NvRhOsfGJSv9MPCDauGX-53" value="" style="html=1;verticalAlign=bottom;endArrow=open;dashed=1;endSize=8;exitX=0;exitY=0.95;strokeColor=#FF8000;fontFamily=Tahoma;fontSize=10;fontColor=#000066;" edge="1" parent="1" source="NvRhOsfGJSv9MPCDauGX-18" target="NvRhOsfGJSv9MPCDauGX-6">
          <mxGeometry relative="1" as="geometry">
            <mxPoint x="290" y="477" as="targetPoint" />
          </mxGeometry>
        </mxCell>
        <mxCell id="NvRhOsfGJSv9MPCDauGX-54" value="newUser(UserID)" style="html=1;verticalAlign=bottom;endArrow=block;entryX=0;entryY=0;strokeColor=#FF8000;fontFamily=Tahoma;fontSize=10;fontColor=#000066;" edge="1" parent="1" target="NvRhOsfGJSv9MPCDauGX-21">
          <mxGeometry relative="1" as="geometry">
            <mxPoint x="205" y="439" as="sourcePoint" />
          </mxGeometry>
        </mxCell>
        <mxCell id="NvRhOsfGJSv9MPCDauGX-55" value="" style="html=1;verticalAlign=bottom;endArrow=open;dashed=1;endSize=8;exitX=0;exitY=0.95;strokeColor=#FF8000;fontFamily=Tahoma;fontSize=10;fontColor=#000066;" edge="1" parent="1" source="NvRhOsfGJSv9MPCDauGX-21" target="NvRhOsfGJSv9MPCDauGX-6">
          <mxGeometry relative="1" as="geometry">
            <mxPoint x="284" y="515" as="targetPoint" />
          </mxGeometry>
        </mxCell>
        <mxCell id="NvRhOsfGJSv9MPCDauGX-56" value="displayHabits(habits)" style="html=1;verticalAlign=bottom;endArrow=block;entryX=0;entryY=0;strokeColor=#FF8000;fontFamily=Tahoma;fontSize=10;fontColor=#000066;" edge="1" parent="1" source="NvRhOsfGJSv9MPCDauGX-6" target="NvRhOsfGJSv9MPCDauGX-30">
          <mxGeometry relative="1" as="geometry">
            <mxPoint x="285" y="470" as="sourcePoint" />
          </mxGeometry>
        </mxCell>
        <mxCell id="NvRhOsfGJSv9MPCDauGX-57" value="Habit" style="html=1;verticalAlign=bottom;endArrow=open;dashed=1;endSize=8;exitX=0;exitY=0.95;strokeColor=#FF8000;fontFamily=Tahoma;fontSize=10;fontColor=#000066;" edge="1" parent="1" source="NvRhOsfGJSv9MPCDauGX-30" target="NvRhOsfGJSv9MPCDauGX-6">
          <mxGeometry relative="1" as="geometry">
            <mxPoint x="285" y="546" as="targetPoint" />
          </mxGeometry>
        </mxCell>
        <mxCell id="NvRhOsfGJSv9MPCDauGX-58" value="loop" style="shape=umlFrame;whiteSpace=wrap;html=1;strokeColor=#000066;fillColor=#FF8000;fontFamily=Tahoma;fontSize=10;fontColor=#000066;align=center;width=40;height=15;" vertex="1" parent="1">
          <mxGeometry x="182" y="470" width="198" height="60" as="geometry" />
        </mxCell>
        <mxCell id="NvRhOsfGJSv9MPCDauGX-59" value="habits[]" style="text;html=1;resizable=0;points=[];autosize=1;align=left;verticalAlign=top;spacingTop=-4;fontSize=10;fontFamily=Tahoma;fontColor=#000066;" vertex="1" parent="1">
          <mxGeometry x="225" y="470" width="50" height="10" as="geometry" />
        </mxCell>
        <mxCell id="NvRhOsfGJSv9MPCDauGX-60" value="opt" style="shape=umlFrame;whiteSpace=wrap;html=1;strokeColor=#000066;fillColor=#FF8000;fontFamily=Tahoma;fontSize=10;fontColor=#000066;align=center;width=40;height=15;" vertex="1" parent="1">
          <mxGeometry x="69" y="540" width="311" height="160" as="geometry" />
        </mxCell>
        <mxCell id="NvRhOsfGJSv9MPCDauGX-61" value="NewHabit == true" style="text;html=1;resizable=0;points=[];autosize=1;align=left;verticalAlign=top;spacingTop=-4;fontSize=10;fontFamily=Tahoma;fontColor=#000066;" vertex="1" parent="1">
          <mxGeometry x="110" y="540" width="100" height="10" as="geometry" />
        </mxCell>
        <mxCell id="NvRhOsfGJSv9MPCDauGX-62" value="enterNewHabit()" style="html=1;verticalAlign=bottom;endArrow=block;entryX=1;entryY=0;strokeColor=#FF8000;fontFamily=Tahoma;fontSize=10;fontColor=#000066;" edge="1" parent="1" source="NvRhOsfGJSv9MPCDauGX-6" target="NvRhOsfGJSv9MPCDauGX-3">
          <mxGeometry relative="1" as="geometry">
            <mxPoint x="146" y="580" as="sourcePoint" />
          </mxGeometry>
        </mxCell>
        <mxCell id="NvRhOsfGJSv9MPCDauGX-63" value="habitName" style="html=1;verticalAlign=bottom;endArrow=open;dashed=1;endSize=8;exitX=1;exitY=0.95;strokeColor=#FF8000;fontFamily=Tahoma;fontSize=10;fontColor=#000066;" edge="1" parent="1" source="NvRhOsfGJSv9MPCDauGX-3" target="NvRhOsfGJSv9MPCDauGX-6">
          <mxGeometry relative="1" as="geometry">
            <mxPoint x="146" y="637" as="targetPoint" />
          </mxGeometry>
        </mxCell>
        <mxCell id="NvRhOsfGJSv9MPCDauGX-64" value="newHabit(habitName)" style="html=1;verticalAlign=bottom;endArrow=block;entryX=0;entryY=0;strokeColor=#FF8000;fontFamily=Tahoma;fontSize=10;fontColor=#000066;" edge="1" parent="1" source="NvRhOsfGJSv9MPCDauGX-6" target="NvRhOsfGJSv9MPCDauGX-26">
          <mxGeometry relative="1" as="geometry">
            <mxPoint x="285" y="610" as="sourcePoint" />
          </mxGeometry>
        </mxCell>
        <mxCell id="NvRhOsfGJSv9MPCDauGX-65" value="" style="html=1;verticalAlign=bottom;endArrow=open;dashed=1;endSize=8;exitX=0;exitY=0.95;strokeColor=#FF8000;fontFamily=Tahoma;fontSize=10;fontColor=#000066;" edge="1" parent="1" source="NvRhOsfGJSv9MPCDauGX-26" target="NvRhOsfGJSv9MPCDauGX-6">
          <mxGeometry relative="1" as="geometry">
            <mxPoint x="285" y="686" as="targetPoint" />
          </mxGeometry>
        </mxCell>
        <mxCell id="NvRhOsfGJSv9MPCDauGX-66" value="loop" style="shape=umlFrame;whiteSpace=wrap;html=1;strokeColor=#000066;fillColor=#FF8000;fontFamily=Tahoma;fontSize=10;fontColor=#000066;align=center;width=40;height=15;" vertex="1" parent="1">
          <mxGeometry x="182" y="630" width="188" height="60" as="geometry" />
        </mxCell>
        <mxCell id="NvRhOsfGJSv9MPCDauGX-67" value="displayHabits(habits)" style="html=1;verticalAlign=bottom;endArrow=block;strokeColor=#FF8000;fontFamily=Tahoma;fontSize=10;fontColor=#000066;" edge="1" parent="1" source="NvRhOsfGJSv9MPCDauGX-6" target="NvRhOsfGJSv9MPCDauGX-34">
          <mxGeometry relative="1" as="geometry">
            <mxPoint x="205" y="660" as="sourcePoint" />
            <mxPoint x="360" y="650" as="targetPoint" />
          </mxGeometry>
        </mxCell>
        <mxCell id="NvRhOsfGJSv9MPCDauGX-68" value="Habit" style="html=1;verticalAlign=bottom;endArrow=open;dashed=1;endSize=8;exitX=0.5;exitY=0.611;strokeColor=#FF8000;fontFamily=Tahoma;fontSize=10;fontColor=#000066;exitPerimeter=0;" edge="1" parent="1">
          <mxGeometry relative="1" as="geometry">
            <mxPoint x="205" y="679" as="targetPoint" />
            <mxPoint x="360" y="679" as="sourcePoint" />
          </mxGeometry>
        </mxCell>
        <mxCell id="NvRhOsfGJSv9MPCDauGX-69" value="habits[]" style="text;html=1;resizable=0;points=[];autosize=1;align=left;verticalAlign=top;spacingTop=-4;fontSize=10;fontFamily=Tahoma;fontColor=#000066;" vertex="1" parent="1">
          <mxGeometry x="220" y="630" width="50" height="10" as="geometry" />
        </mxCell>
        <mxCell id="NvRhOsfGJSv9MPCDauGX-70" value="start app" style="html=1;verticalAlign=bottom;startArrow=oval;startFill=1;endArrow=block;startSize=8;strokeColor=#FF8000;fontFamily=Tahoma;fontSize=10;fontColor=#000066;" edge="1" parent="1">
          <mxGeometry width="60" relative="1" as="geometry">
            <mxPoint x="30" y="112" as="sourcePoint" />
            <mxPoint x="79.50000000000023" y="112" as="targetPoint" />
          </mxGeometry>
        </mxCell>
        <UserObject label="SD checkin" link="data:page/id,58tUFKMMwjoJYMb167R7" id="NvRhOsfGJSv9MPCDauGX-71">
          <mxCell style="shape=umlFrame;whiteSpace=wrap;html=1;strokeColor=#000066;fillColor=#FF8000;fontFamily=Tahoma;fontSize=10;fontColor=#000066;align=left;width=160;height=15;swimlaneFillColor=#ffffff;" vertex="1" parent="1">
            <mxGeometry x="70" y="760" width="530" height="40" as="geometry" />
          </mxCell>
        </UserObject>
        <UserObject label="SD displayHabitHistory" link="data:page/id,RhUDDJOnSbQnjoUeqEox" id="NvRhOsfGJSv9MPCDauGX-72">
          <mxCell style="shape=umlFrame;whiteSpace=wrap;html=1;strokeColor=#000066;fillColor=#FF8000;fontFamily=Tahoma;fontSize=10;fontColor=#000066;align=left;width=160;height=15;swimlaneFillColor=#ffffff;" vertex="1" parent="1">
            <mxGeometry x="70" y="710" width="310" height="40" as="geometry" />
          </mxCell>
        </UserObject>
        <mxCell id="NvRhOsfGJSv9MPCDauGX-73" value="" style="html=1;points=[];perimeter=orthogonalPerimeter;strokeColor=#000066;fillColor=#FF8000;fontFamily=Tahoma;fontSize=14;fontColor=#000066;align=center;" vertex="1" parent="1">
          <mxGeometry x="350" y="208" width="10" height="20" as="geometry" />
        </mxCell>
      </root>
    </mxGraphModel>
  </diagram>
  <diagram name="displayHabitHistory" id="RhUDDJOnSbQnjoUeqEox">
    <mxGraphModel shadow="0" fold="1" math="0" pageScale="1" background="" pageWidth="850" pageHeight="1100">
      <root>
        <mxCell id="0" />
        <mxCell id="1" parent="0" />
        <mxCell id="2750c62718d928d1-2" value="SD displayHabitHistory" style="shape=umlFrame;whiteSpace=wrap;html=1;strokeColor=#000066;fillColor=#FF8000;fontFamily=Tahoma;fontSize=14;fontColor=#000066;align=center;width=160;height=40;" vertex="1" parent="1">
          <mxGeometry x="39" y="38" width="551" height="344" as="geometry" />
        </mxCell>
        <mxCell id="2750c62718d928d1-1" value="" style="shape=umlLifeline;participant=umlActor;perimeter=lifelinePerimeter;whiteSpace=wrap;html=1;container=1;collapsible=0;recursiveResize=0;verticalAlign=top;spacingTop=36;labelBackgroundColor=#ffffff;outlineConnect=0;strokeColor=#000066;fillColor=#FF8000;fontFamily=Tahoma;fontSize=14;fontColor=#000066;" vertex="1" parent="1">
          <mxGeometry x="99" y="138" width="20" height="219" as="geometry" />
        </mxCell>
        <mxCell id="2750c62718d928d1-4" value="User: Person" style="text;html=1;resizable=0;points=[];autosize=1;align=center;verticalAlign=top;spacingTop=-4;fontSize=14;fontFamily=Tahoma;fontColor=#000066;" vertex="1" parent="1">
          <mxGeometry x="90" y="97" width="90" height="20" as="geometry" />
        </mxCell>
        <mxCell id="2750c62718d928d1-5" value="" style="shape=umlLifeline;participant=umlControl;perimeter=lifelinePerimeter;whiteSpace=wrap;html=1;container=1;collapsible=0;recursiveResize=0;verticalAlign=top;spacingTop=36;labelBackgroundColor=#ffffff;outlineConnect=0;strokeColor=#000066;fillColor=#FF8000;fontFamily=Tahoma;fontSize=14;fontColor=#000066;" vertex="1" parent="1">
          <mxGeometry x="209" y="134" width="40" height="223" as="geometry" />
        </mxCell>
        <mxCell id="2750c62718d928d1-3" value="" style="html=1;points=[];perimeter=orthogonalPerimeter;strokeColor=#000066;fillColor=#FF8000;fontFamily=Tahoma;fontSize=10;fontColor=#000066;align=left;" vertex="1" parent="2750c62718d928d1-5">
          <mxGeometry x="15" y="73" width="10" height="137" as="geometry" />
        </mxCell>
        <mxCell id="2750c62718d928d1-11" value="" style="html=1;points=[];perimeter=orthogonalPerimeter;strokeColor=#000066;fillColor=#FF8000;fontFamily=Tahoma;fontSize=10;fontColor=#000066;align=left;" vertex="1" parent="2750c62718d928d1-5">
          <mxGeometry x="20" y="113" width="10" height="40" as="geometry" />
        </mxCell>
        <mxCell id="2750c62718d928d1-12" value="getHabitCheckinID(Habit.HabitHistory.habitCheckins[x])" style="edgeStyle=orthogonalEdgeStyle;html=1;align=left;spacingLeft=2;endArrow=block;rounded=0;strokeColor=#FF8000;fontFamily=Tahoma;fontSize=10;fontColor=#000066;exitX=1.1;exitY=0.1;exitPerimeter=0;fillColor=#ffffff;" edge="1" parent="2750c62718d928d1-5" source="2750c62718d928d1-11" target="2750c62718d928d1-11">
          <mxGeometry relative="1" as="geometry">
            <mxPoint x="25" y="93" as="sourcePoint" />
            <Array as="points">
              <mxPoint x="50" y="117" />
              <mxPoint x="50" y="133" />
            </Array>
          </mxGeometry>
        </mxCell>
        <mxCell id="2750c62718d928d1-15" value="&lt;div style=&quot;text-align: center&quot;&gt;&lt;span&gt;Habit Tracker&amp;nbsp;&lt;/span&gt;&lt;/div&gt;&lt;div style=&quot;text-align: center&quot;&gt;app UI&lt;/div&gt;" style="text;html=1;resizable=0;points=[];autosize=1;align=left;verticalAlign=top;spacingTop=-4;fontSize=14;fontFamily=Tahoma;fontColor=#000066;" vertex="1" parent="1">
          <mxGeometry x="185" y="97" width="100" height="40" as="geometry" />
        </mxCell>
        <mxCell id="2750c62718d928d1-36" value="&lt;div style=&quot;text-align: center&quot;&gt;Data store&lt;/div&gt;" style="text;html=1;resizable=0;points=[];autosize=1;align=center;verticalAlign=top;spacingTop=-4;fontSize=14;fontFamily=Tahoma;fontColor=#000066;" vertex="1" parent="1">
          <mxGeometry x="479" y="97" width="80" height="20" as="geometry" />
        </mxCell>
        <mxCell id="2750c62718d928d1-6" value="view habit history" style="html=1;verticalAlign=bottom;endArrow=block;entryX=0;entryY=0;strokeColor=#FF8000;fontFamily=Tahoma;fontSize=10;fontColor=#000066;" edge="1" parent="1" source="2750c62718d928d1-1" target="2750c62718d928d1-3">
          <mxGeometry relative="1" as="geometry">
            <mxPoint x="154" y="207" as="sourcePoint" />
          </mxGeometry>
        </mxCell>
        <mxCell id="2750c62718d928d1-7" value="" style="html=1;verticalAlign=bottom;endArrow=open;dashed=1;endSize=8;exitX=0;exitY=0.95;strokeColor=#FF8000;fontFamily=Tahoma;fontSize=10;fontColor=#000066;" edge="1" parent="1" source="2750c62718d928d1-3" target="2750c62718d928d1-1">
          <mxGeometry relative="1" as="geometry">
            <mxPoint x="149" y="337" as="targetPoint" />
          </mxGeometry>
        </mxCell>
        <mxCell id="2750c62718d928d1-9" value="displayCheckin(habitCheckinID)" style="html=1;verticalAlign=bottom;endArrow=block;entryX=0;entryY=0;strokeColor=#FF8000;fontFamily=Tahoma;fontSize=10;fontColor=#000066;" edge="1" parent="1" source="2750c62718d928d1-3" target="2750c62718d928d1-8">
          <mxGeometry relative="1" as="geometry">
            <mxPoint x="234" y="747" as="sourcePoint" />
          </mxGeometry>
        </mxCell>
        <mxCell id="2750c62718d928d1-10" value="return" style="html=1;verticalAlign=bottom;endArrow=open;dashed=1;endSize=8;exitX=0;exitY=0.95;strokeColor=#FF8000;fontFamily=Tahoma;fontSize=10;fontColor=#000066;" edge="1" parent="1" source="2750c62718d928d1-8" target="2750c62718d928d1-3">
          <mxGeometry relative="1" as="geometry">
            <mxPoint x="234" y="823" as="targetPoint" />
          </mxGeometry>
        </mxCell>
        <mxCell id="2750c62718d928d1-16" value="habitCheckins[]" style="text;html=1;resizable=0;points=[];autosize=1;align=left;verticalAlign=top;spacingTop=-4;fontSize=10;fontFamily=Tahoma;fontColor=#000066;" vertex="1" parent="1">
          <mxGeometry x="259" y="222" width="80" height="10" as="geometry" />
        </mxCell>
        <mxCell id="2750c62718d928d1-20" value="" style="shape=umlLifeline;participant=umlBoundary;perimeter=lifelinePerimeter;whiteSpace=wrap;html=1;container=1;collapsible=0;recursiveResize=0;verticalAlign=top;spacingTop=36;labelBackgroundColor=#ffffff;outlineConnect=0;fontFamily=Tahoma;fontSize=14;fontColor=#000066;align=center;strokeColor=#000066;fillColor=#FF8000;" vertex="1" parent="1">
          <mxGeometry x="500" y="140" width="46" height="217" as="geometry" />
        </mxCell>
        <mxCell id="2750c62718d928d1-8" value="" style="html=1;points=[];perimeter=orthogonalPerimeter;strokeColor=#000066;fillColor=#FF8000;fontFamily=Tahoma;fontSize=10;fontColor=#000066;align=left;" vertex="1" parent="2750c62718d928d1-20">
          <mxGeometry x="18" y="157" width="10" height="20" as="geometry" />
        </mxCell>
        <mxCell id="2750c62718d928d1-14" value="loop" style="shape=umlFrame;whiteSpace=wrap;html=1;strokeColor=#000066;fillColor=#FF8000;fontFamily=Tahoma;fontSize=10;fontColor=#000066;align=center;width=50;height=20;" vertex="1" parent="1">
          <mxGeometry x="209" y="222" width="330" height="105" as="geometry" />
        </mxCell>
      </root>
    </mxGraphModel>
  </diagram>
  <diagram name="SD checkin" id="58tUFKMMwjoJYMb167R7">
    <mxGraphModel shadow="0" fold="1" math="0" pageScale="1" background="" pageWidth="850" pageHeight="1100">
      <root>
        <mxCell id="0" />
        <mxCell id="1" parent="0" />
        <mxCell id="2750c62718d928d1-19" value="&lt;font style=&quot;font-size: 14px&quot;&gt;SD checkin&lt;/font&gt;" style="shape=umlFrame;whiteSpace=wrap;html=1;strokeColor=#000066;fillColor=#FF8000;fontFamily=Tahoma;fontSize=10;fontColor=#000066;align=center;width=100;height=30;" vertex="1" parent="1">
          <mxGeometry x="40" y="40" width="640" height="501" as="geometry" />
        </mxCell>
        <mxCell id="2750c62718d928d1-1" value="" style="shape=umlLifeline;participant=umlActor;perimeter=lifelinePerimeter;whiteSpace=wrap;html=1;container=1;collapsible=0;recursiveResize=0;verticalAlign=top;spacingTop=36;labelBackgroundColor=#ffffff;outlineConnect=0;strokeColor=#000066;fillColor=#FF8000;fontFamily=Tahoma;fontSize=14;fontColor=#000066;" vertex="1" parent="1">
          <mxGeometry x="89" y="122" width="20" height="399" as="geometry" />
        </mxCell>
        <mxCell id="2750c62718d928d1-14" value="" style="html=1;points=[];perimeter=orthogonalPerimeter;strokeColor=#000066;fillColor=#FF8000;fontFamily=Tahoma;fontSize=10;fontColor=#000066;align=center;" vertex="1" parent="2750c62718d928d1-1">
          <mxGeometry x="5" y="143" width="10" height="24" as="geometry" />
        </mxCell>
        <mxCell id="2750c62718d928d1-2" value="User: Person" style="text;html=1;resizable=0;points=[];autosize=1;align=center;verticalAlign=top;spacingTop=-4;fontSize=14;fontFamily=Tahoma;fontColor=#000066;" vertex="1" parent="1">
          <mxGeometry x="80" y="81" width="90" height="20" as="geometry" />
        </mxCell>
        <mxCell id="2750c62718d928d1-3" value="" style="shape=umlLifeline;participant=umlControl;perimeter=lifelinePerimeter;whiteSpace=wrap;html=1;container=1;collapsible=0;recursiveResize=0;verticalAlign=top;spacingTop=36;labelBackgroundColor=#ffffff;outlineConnect=0;strokeColor=#000066;fillColor=#FF8000;fontFamily=Tahoma;fontSize=14;fontColor=#000066;" vertex="1" parent="1">
          <mxGeometry x="199" y="118" width="40" height="403" as="geometry" />
        </mxCell>
        <mxCell id="2750c62718d928d1-11" value="" style="html=1;points=[];perimeter=orthogonalPerimeter;strokeColor=#000066;fillColor=#FF8000;fontFamily=Tahoma;fontSize=14;fontColor=#000066;align=center;" vertex="1" parent="2750c62718d928d1-3">
          <mxGeometry x="15" y="83" width="10" height="287" as="geometry" />
        </mxCell>
        <mxCell id="2750c62718d928d1-17" value="" style="html=1;points=[];perimeter=orthogonalPerimeter;strokeColor=#000066;fillColor=#FF8000;fontFamily=Tahoma;fontSize=10;fontColor=#000066;align=center;" vertex="1" parent="2750c62718d928d1-3">
          <mxGeometry x="20" y="113" width="10" height="67" as="geometry" />
        </mxCell>
        <mxCell id="2750c62718d928d1-18" value="newCheckin()" style="edgeStyle=orthogonalEdgeStyle;html=1;align=left;spacingLeft=2;endArrow=block;rounded=0;strokeColor=#FF8000;fontFamily=Tahoma;fontSize=10;fontColor=#000066;exitX=1.1;exitY=0.025;exitPerimeter=0;entryX=1;entryY=0.957;entryPerimeter=0;" edge="1" parent="2750c62718d928d1-3" source="2750c62718d928d1-17" target="2750c62718d928d1-17">
          <mxGeometry relative="1" as="geometry">
            <mxPoint x="25" y="93" as="sourcePoint" />
            <Array as="points">
              <mxPoint x="31" y="114" />
              <mxPoint x="50" y="114" />
              <mxPoint x="50" y="177" />
            </Array>
          </mxGeometry>
        </mxCell>
        <mxCell id="2750c62718d928d1-4" value="&lt;div style=&quot;text-align: center&quot;&gt;&lt;span&gt;Habit Tracker&amp;nbsp;&lt;/span&gt;&lt;/div&gt;&lt;div style=&quot;text-align: center&quot;&gt;app UI&lt;/div&gt;" style="text;html=1;resizable=0;points=[];autosize=1;align=left;verticalAlign=top;spacingTop=-4;fontSize=14;fontFamily=Tahoma;fontColor=#000066;" vertex="1" parent="1">
          <mxGeometry x="175" y="81" width="100" height="40" as="geometry" />
        </mxCell>
        <mxCell id="2750c62718d928d1-5" value="" style="shape=umlLifeline;participant=umlEntity;perimeter=lifelinePerimeter;whiteSpace=wrap;html=1;container=1;collapsible=0;recursiveResize=0;verticalAlign=top;spacingTop=36;labelBackgroundColor=#ffffff;outlineConnect=0;fontFamily=Tahoma;fontSize=14;fontColor=#000066;align=center;strokeColor=#000066;fillColor=#FF8000;" vertex="1" parent="1">
          <mxGeometry x="480" y="120" width="44" height="401" as="geometry" />
        </mxCell>
        <mxCell id="2750c62718d928d1-6" value="Authentication&amp;nbsp;&lt;div&gt;Service&lt;/div&gt;" style="text;html=1;resizable=0;points=[];autosize=1;align=center;verticalAlign=top;spacingTop=-4;fontSize=14;fontFamily=Tahoma;fontColor=#000066;" vertex="1" parent="1">
          <mxGeometry x="441" y="81" width="110" height="40" as="geometry" />
        </mxCell>
        <mxCell id="2750c62718d928d1-7" value="" style="shape=umlLifeline;participant=umlBoundary;perimeter=lifelinePerimeter;whiteSpace=wrap;html=1;container=1;collapsible=0;recursiveResize=0;verticalAlign=top;spacingTop=36;labelBackgroundColor=#ffffff;outlineConnect=0;fontFamily=Tahoma;fontSize=14;fontColor=#000066;align=center;strokeColor=#000066;fillColor=#FF8000;" vertex="1" parent="1">
          <mxGeometry x="350" y="120" width="49" height="401" as="geometry" />
        </mxCell>
        <mxCell id="2750c62718d928d1-20" value="" style="html=1;points=[];perimeter=orthogonalPerimeter;strokeColor=#000066;fillColor=#FF8000;fontFamily=Tahoma;fontSize=10;fontColor=#000066;align=center;" vertex="1" parent="2750c62718d928d1-7">
          <mxGeometry x="20" y="222" width="10" height="19" as="geometry" />
        </mxCell>
        <mxCell id="2750c62718d928d1-8" value="&lt;div style=&quot;text-align: center&quot;&gt;Data store&lt;/div&gt;" style="text;html=1;resizable=0;points=[];autosize=1;align=center;verticalAlign=top;spacingTop=-4;fontSize=14;fontFamily=Tahoma;fontColor=#000066;" vertex="1" parent="1">
          <mxGeometry x="332" y="81" width="80" height="20" as="geometry" />
        </mxCell>
        <mxCell id="2750c62718d928d1-9" value="" style="shape=umlLifeline;participant=umlActor;perimeter=lifelinePerimeter;whiteSpace=wrap;html=1;container=1;collapsible=0;recursiveResize=0;verticalAlign=top;spacingTop=36;labelBackgroundColor=#ffffff;outlineConnect=0;strokeColor=#000066;fillColor=#FF8000;fontFamily=Tahoma;fontSize=14;fontColor=#000066;align=center;" vertex="1" parent="1">
          <mxGeometry x="591" y="122" width="20" height="399" as="geometry" />
        </mxCell>
        <mxCell id="2750c62718d928d1-23" value="" style="html=1;points=[];perimeter=orthogonalPerimeter;strokeColor=#000066;fillColor=#FF8000;fontFamily=Tahoma;fontSize=10;fontColor=#000066;align=center;" vertex="1" parent="2750c62718d928d1-9">
          <mxGeometry x="5" y="303" width="10" height="11" as="geometry" />
        </mxCell>
        <mxCell id="2750c62718d928d1-10" value="&lt;div style=&quot;text-align: center&quot;&gt;&lt;span&gt;Coach: Person&lt;/span&gt;&lt;/div&gt;" style="text;html=1;resizable=0;points=[];autosize=1;align=left;verticalAlign=top;spacingTop=-4;fontSize=14;fontFamily=Tahoma;fontColor=#000066;" vertex="1" parent="1">
          <mxGeometry x="551" y="81" width="100" height="20" as="geometry" />
        </mxCell>
        <mxCell id="2750c62718d928d1-12" value="&lt;font style=&quot;font-size: 10px;&quot;&gt;habit checkin&lt;/font&gt;" style="html=1;verticalAlign=bottom;endArrow=block;entryX=0;entryY=0;strokeColor=#FF8000;fontFamily=Tahoma;fontSize=10;fontColor=#000066;" edge="1" parent="1" source="2750c62718d928d1-1" target="2750c62718d928d1-11">
          <mxGeometry relative="1" as="geometry">
            <mxPoint x="144" y="201" as="sourcePoint" />
          </mxGeometry>
        </mxCell>
        <mxCell id="2750c62718d928d1-13" value="" style="html=1;verticalAlign=bottom;endArrow=open;dashed=1;endSize=8;exitX=0;exitY=0.95;strokeColor=#FF8000;fontFamily=Tahoma;fontSize=14;fontColor=#000066;" edge="1" parent="1" source="2750c62718d928d1-11" target="2750c62718d928d1-1">
          <mxGeometry relative="1" as="geometry">
            <mxPoint x="144" y="277" as="targetPoint" />
          </mxGeometry>
        </mxCell>
        <mxCell id="2750c62718d928d1-15" value="&lt;font style=&quot;font-size: 10px;&quot;&gt;addComment()&lt;/font&gt;" style="html=1;verticalAlign=bottom;endArrow=block;entryX=1;entryY=0;strokeColor=#FF8000;fontFamily=Tahoma;fontSize=10;fontColor=#000066;" edge="1" parent="1" source="2750c62718d928d1-17" target="2750c62718d928d1-14">
          <mxGeometry relative="1" as="geometry">
            <mxPoint x="164" y="221" as="sourcePoint" />
          </mxGeometry>
        </mxCell>
        <mxCell id="2750c62718d928d1-16" value="Comment" style="html=1;verticalAlign=bottom;endArrow=open;dashed=1;endSize=8;exitX=1;exitY=0.95;strokeColor=#FF8000;fontFamily=Tahoma;fontSize=10;fontColor=#000066;" edge="1" parent="1" source="2750c62718d928d1-14" target="2750c62718d928d1-17">
          <mxGeometry relative="1" as="geometry">
            <mxPoint x="164" y="278" as="targetPoint" />
          </mxGeometry>
        </mxCell>
        <mxCell id="2750c62718d928d1-21" value="saveCheckin(Habit.HabitHistory)" style="html=1;verticalAlign=bottom;endArrow=block;entryX=0;entryY=0;strokeColor=#FF8000;fontFamily=Tahoma;fontSize=10;fontColor=#000066;" edge="1" parent="1" target="2750c62718d928d1-20">
          <mxGeometry relative="1" as="geometry">
            <mxPoint x="224" y="343" as="sourcePoint" />
          </mxGeometry>
        </mxCell>
        <mxCell id="2750c62718d928d1-22" value="" style="html=1;verticalAlign=bottom;endArrow=open;dashed=1;endSize=8;exitX=0;exitY=0.95;strokeColor=#FF8000;fontFamily=Tahoma;fontSize=10;fontColor=#000066;" edge="1" parent="1" source="2750c62718d928d1-20">
          <mxGeometry relative="1" as="geometry">
            <mxPoint x="224" y="361" as="targetPoint" />
          </mxGeometry>
        </mxCell>
        <mxCell id="2750c62718d928d1-24" value="checkinPushNotification(UserID,Habit.HabitHistory.Checkin)" style="html=1;verticalAlign=bottom;endArrow=block;entryX=0;entryY=0;strokeColor=#FF8000;fontFamily=Tahoma;fontSize=10;fontColor=#000066;" edge="1" parent="1" target="2750c62718d928d1-23">
          <mxGeometry relative="1" as="geometry">
            <mxPoint x="224" y="425" as="sourcePoint" />
          </mxGeometry>
        </mxCell>
        <mxCell id="2750c62718d928d1-25" value="" style="html=1;verticalAlign=bottom;endArrow=open;dashed=1;endSize=8;exitX=0;exitY=0.95;strokeColor=#FF8000;fontFamily=Tahoma;fontSize=10;fontColor=#000066;" edge="1" parent="1" source="2750c62718d928d1-23">
          <mxGeometry relative="1" as="geometry">
            <mxPoint x="224" y="435" as="targetPoint" />
          </mxGeometry>
        </mxCell>
        <mxCell id="2750c62718d928d1-26" value="opt" style="shape=umlFrame;whiteSpace=wrap;html=1;strokeColor=#000066;fillColor=#FF8000;fontFamily=Tahoma;fontSize=10;fontColor=#000066;align=center;width=40;height=16;" vertex="1" parent="1">
          <mxGeometry x="90" y="235" width="150" height="56" as="geometry" />
        </mxCell>
        <mxCell id="2750c62718d928d1-27" value="Comment == yes" style="text;html=1;resizable=0;points=[];autosize=1;align=left;verticalAlign=top;spacingTop=-4;fontSize=10;fontFamily=Tahoma;fontColor=#000066;" vertex="1" parent="1">
          <mxGeometry x="130" y="235" width="90" height="10" as="geometry" />
        </mxCell>
        <mxCell id="2750c62718d928d1-29" value="coach != NULL" style="text;html=1;resizable=0;points=[];autosize=1;align=left;verticalAlign=top;spacingTop=-4;fontSize=10;fontFamily=Tahoma;fontColor=#000066;" vertex="1" parent="1">
          <mxGeometry x="260" y="393" width="80" height="10" as="geometry" />
        </mxCell>
        <mxCell id="2750c62718d928d1-32" value="" style="endArrow=none;dashed=1;html=1;strokeColor=#000066;fontFamily=Tahoma;fontSize=10;fontColor=#000066;entryX=1;entryY=0.429;entryPerimeter=0;exitX=0.004;exitY=0.436;exitPerimeter=0;" edge="1" parent="1" source="2750c62718d928d1-30" target="2750c62718d928d1-30">
          <mxGeometry width="50" height="50" relative="1" as="geometry">
            <mxPoint x="80" y="651" as="sourcePoint" />
            <mxPoint x="130" y="601" as="targetPoint" />
          </mxGeometry>
        </mxCell>
        <mxCell id="6f63ef780fc93045-6" value="" style="shape=umlLifeline;participant=umlControl;perimeter=lifelinePerimeter;whiteSpace=wrap;html=1;container=1;collapsible=0;recursiveResize=0;verticalAlign=top;spacingTop=36;labelBackgroundColor=#ffffff;outlineConnect=0;" vertex="1" parent="1">
          <mxGeometry x="40" y="560" width="40" height="300" as="geometry" />
        </mxCell>
        <mxCell id="2750c62718d928d1-30" value="par" style="shape=umlFrame;whiteSpace=wrap;html=1;strokeColor=#000066;fillColor=#FF8000;fontFamily=Tahoma;fontSize=10;fontColor=#000066;align=center;width=40;height=20;" vertex="1" parent="1">
          <mxGeometry x="170" y="319" width="450" height="140" as="geometry" />
        </mxCell>
        <mxCell id="2750c62718d928d1-28" value="opt" style="shape=umlFrame;whiteSpace=wrap;html=1;strokeColor=#000066;fillColor=#FF8000;fontFamily=Tahoma;fontSize=10;fontColor=#000066;align=center;width=50;height=20;" vertex="1" parent="1">
          <mxGeometry x="210" y="393" width="400" height="53" as="geometry" />
        </mxCell>
      </root>
    </mxGraphModel>
  </diagram>
</mxfile>
